<?xml version="1.0" encoding="UTF-8" standalone="no"?>
<svg xmlns="http://www.w3.org/2000/svg" xmlns:xlink="http://www.w3.org/1999/xlink" width="238.419mm" height="69.287mm" viewBox="6.701402 -76.308937 238.418625 69.287132">
    <path transform="matrix(0.243577,0,0,-0.243577,-0.118759,83.71151)" style="stroke:#4a6fe3;stroke-width:0.205274mm;fill:none" d="M279.738647,641.687988C273.269897,637.734558,257.643677,627.75,245.013702,619.5C232.383728,611.25,220.558685,603.599976,218.73584,602.5C208.363113,596.24054,184.619995,579.046692,185.346222,578.320435C185.587357,578.079285,192.861206,580.608582,201.5103,583.940979C210.159409,587.273438,217.407867,590,217.617981,590C220.106552,590,212.804596,581.261108,186.5,552.758423C167.701126,532.388611,151.660767,514.442688,133.5,493.462067C104.611542,460.088013,56.041939,406.56543,48.560688,399.860901C46.327309,397.859375,43.639683,394.741669,42.588184,392.932678L40.676369,389.643555L49.378532,394.348724C54.164719,396.936584,62.450035,401.017822,67.790344,403.418152C77.709183,407.876465,123.066711,430.009308,178.5,457.440491C195.550003,465.877686,218.148239,476.969421,228.718307,482.088776C239.288391,487.20813,247.838379,491.481018,247.718307,491.584076C247.598236,491.687103,243.449997,490.747986,238.5,489.497162C233.550003,488.246307,222.524994,485.642151,214,483.710114C205.475006,481.778076,190.93338,478.12793,181.685303,475.598663C164.343491,470.855835,160,470.166077,160,472.154907C160,473.582062,170.471069,489.353058,179.650482,501.751495C185.53746,509.702911,190.973526,517.19342,201.808899,532.284302C203.078796,534.052917,206.22879,537.950623,208.808899,540.945862C216.448074,549.814209,218.38295,552.179749,223.37149,558.75C225.981461,562.1875,228.540588,565,229.058441,565C229.599152,565,230,559.436768,230,551.932617L230,538.865234L232.25,539.560242C234.541748,540.268188,237.571838,541.891174,251.159836,549.688721L258.819672,554.084351L259.432434,563.292175C259.76944,568.356506,260.147522,580.67157,260.272583,590.659058L260.5,608.818115L263.741943,612.659058C272.256927,622.747375,292.649841,649.10675,291.809021,648.937988C291.639069,648.903809,286.207397,645.641357,279.738647,641.687988z"/>
    <path transform="matrix(0.243577,0,0,-0.243577,-0.118759,83.71151)" style="stroke:#4a6fe3;stroke-width:0.205274mm;fill:none" d="M798.649475,643.25C803.608765,635.565674,819.081726,610.841064,821.139954,607.311951C827.621033,596.19928,841.478638,573.251343,845.338501,567.239746C847.902283,563.246643,850,559.684387,850,559.32373C850,558.963013,851.952209,555.480103,854.338257,551.583923C856.724304,547.687744,865.1297,533.25,873.016968,519.5C880.904236,505.75,890.402283,489.194763,894.12384,482.710602C901.803162,469.330627,902.78302,467,900.729126,467C898.33606,467,875.976013,473.8172,866.5,477.435852C857.214355,480.981812,837.234192,487.827576,828.583435,490.427094C821.955017,492.418945,823.408325,491.22583,840,481.054535C847.424988,476.502747,855.075012,471.742859,857,470.47702C865.552856,464.852844,913.843445,436.613281,921.667053,432.660767C924.508972,431.225037,938.125,423.289032,951.924988,415.025177C965.724976,406.761322,977.244934,400,977.524963,400C977.804932,400,981.288879,398.034851,985.267029,395.632996C989.245178,393.23114,993.98291,390.509033,995.79541,389.583832L999.09082,387.901672L997.017212,391.700836C990.524658,403.596466,971.684937,434.296722,953.570251,462.5C942.005127,480.506012,921.332947,511.209656,914.519897,520.5C910.083191,526.549988,903.555664,535.775024,900.014221,541C896.472839,546.224976,892.208374,552.322876,890.537659,554.550781C888.866943,556.778687,884.125,563.232544,880,568.8927C875.875,574.552795,870.137512,582.124695,867.25,585.719055C864.362488,589.313477,862,592.647095,862,593.127136C862,594.437317,866.027344,594.18103,871.64209,592.513672C878.94873,590.343811,896.229858,586.896484,896.823669,587.490356C897.564514,588.23114,897.974548,587.963135,879.5,598.8125C862.672424,608.694641,857.090881,612.056824,843.5,620.49823C818.766907,635.860107,811.630676,640.229004,804.520935,644.361816C800.132385,646.912842,796.181091,649,795.740173,649C795.299255,649,796.608459,646.412476,798.649475,643.25z"/>
    <path transform="matrix(0.243577,0,0,-0.243577,-0.118759,83.71151)" style="stroke:#4a6fe3;stroke-width:0.205274mm;fill:none" d="M854,646.225769C846.237061,645.235901,842.910889,641.280151,842.846436,632.96106C842.805664,627.698486,845.606445,621.816162,849.023621,619.987366C851.575012,618.621887,860.354553,618.748779,863.533142,620.197083C866.704224,621.641907,870.01416,627.757202,870.192505,632.500671C870.347168,636.614868,867.411987,643.603149,865.124695,644.566406C862.423645,645.703857,856.654907,646.564331,854,646.225769z"/>
    <path transform="matrix(0.243577,0,0,-0.243577,-0.118759,83.71151)" style="stroke:#4a6fe3;stroke-width:0.205274mm;fill:none" d="M433.75,596.626465L422,595.75293L421.848877,585.626465C421.579529,567.578186,422.049652,494.617004,422.437805,494.228882C422.778503,493.888153,430.344879,493.774506,441.75,493.938782L446,494L446,511.583344C446,525.189087,446.282776,529.079407,447.25,528.780884C448.124817,528.510864,465.392517,495.934387,465.491608,494.367065C465.496216,494.293976,471.733246,493.907928,479.351624,493.509186L493.203247,492.784241L492.494568,495.14212C492.104797,496.438965,490.542786,499.524994,489.023438,502C487.504059,504.475006,482.799866,513.205017,478.56958,521.400085L470.878204,536.300232L474.834656,540.400085C479.489838,545.22406,484.381012,553.746094,485.976715,559.813171C486.600616,562.185425,487.111115,567.438538,487.111115,571.486816C487.111115,582.913696,483.282196,589.182983,473.081757,594.457764C468.619049,596.765442,449.672211,597.810181,433.75,596.626465z"/>
    <path transform="matrix(0.243577,0,0,-0.243577,-0.118759,83.71151)" style="stroke:#0000a0;stroke-width:0.205274mm;fill:none" d="M457.685547,571.825684C460.564575,569.120972,460.774567,564.010925,458.105927,561.595886C456.736359,560.356384,454.867249,559.967346,451.355927,560.190857C446.625183,560.492004,446.491577,560.588501,446.173004,563.9328C445.993164,565.820862,446.126038,568.858398,446.468323,570.6828C447.053986,573.804749,447.334351,574,451.230865,574C454.105438,574,456.078613,573.335327,457.685547,571.825684z"/>
    <path transform="matrix(0.243577,0,0,-0.243577,-0.118759,83.71151)" style="stroke:#4a6fe3;stroke-width:0.205274mm;fill:none" d="M512.343323,597.219971L500.186646,596.939941L500.719849,545.719971C501.013092,517.549011,501.357147,494.376434,501.484436,494.225433C501.797363,493.854095,564.185364,493.85202,564.556641,494.223328C564.894958,494.561646,565.187012,505.826233,565.075867,514.25L565,520L546.468628,520C532.52478,520,527.837646,520.309448,527.534912,521.25C527.313599,521.9375,526.87262,539.132568,526.554932,559.461304C526.237244,579.790039,525.644958,596.665039,525.238647,596.961304C524.832397,597.257568,519.02948,597.373962,512.343323,597.219971z"/>
    <path transform="matrix(0.243577,0,0,-0.243577,-0.118759,83.71151)" style="stroke:#4a6fe3;stroke-width:0.205274mm;fill:none" d="M571.521851,570.882202C570.582886,534.80896,570.353455,495.338531,571.07843,494.599457C571.396606,494.275146,588.159058,493.720764,608.32843,493.367523L645,492.725281L645.105957,503.11264C645.204285,512.748657,645.024048,519.336487,644.654541,519.617493C644.332458,519.862427,611.156372,520.96991,603.702271,520.984619L595.904541,521L596.202271,527.25L596.5,533.5L620.75,533.767761L645,534.035583L645,547.017761L645,560L621.045288,560L597.090637,560L596.403381,563.663269C595.121765,570.494873,595.032349,570.468872,620.858276,570.768433L644,571.036865L644.075928,577.268433C644.31958,597.264587,644.395386,596.986694,638.682617,597.036377C636.382202,597.056396,620.490295,597.340881,603.36731,597.668579L572.234619,598.264465L571.521851,570.882202z"/>
    <path transform="matrix(0.243577,0,0,-0.243577,-0.118759,83.71151)" style="stroke:#4a6fe3;stroke-width:0.205274mm;fill:none" d="M650.512268,546.25C650.882813,517.787476,651.257751,494.423889,651.34552,494.330841C651.587036,494.074677,662.692932,493.825623,669.75,493.918091L676,494L676.004578,499.25C676.007019,502.137512,676.301208,509.569641,676.658264,515.765869C677.256287,526.144531,677.437134,526.914368,678.954956,525.540771C679.861084,524.720703,683.954468,517.362183,688.05127,509.188507L695.5,494.32724L708.322021,493.569C715.374146,493.151947,721.428345,493.095032,721.775818,493.442474C722.506592,494.173279,712.081482,514.641418,704.785583,526.800293L699.804993,535.100586L704.938293,540.52832C712.764709,548.803589,714.983093,554.437317,714.968262,566C714.949463,580.632324,711.154846,587.314453,699.5,593.238953C693.891479,596.089905,692.48877,596.341675,678,597.09845C669.474976,597.543701,659.651184,597.928711,656.16925,597.953979L649.838562,598L650.512268,546.25z"/>
    <path transform="matrix(0.243577,0,0,-0.243577,-0.118759,83.71151)" style="stroke:#0000a0;stroke-width:0.205274mm;fill:none" d="M685.685547,571.825684C688.695984,568.997559,688.62262,565.531677,685.485901,562.39502C683.5271,560.436157,682.14679,559.94928,679.235901,560.190491L675.5,560.5L675.193176,565.880798C675.024475,568.840271,675.122864,571.877747,675.411804,572.630798C676.26825,574.862671,683.015686,574.333923,685.685547,571.825684z"/>
    <path transform="matrix(0.243577,0,0,-0.243577,-0.118759,83.71151)" style="stroke:#4a6fe3;stroke-width:0.205274mm;fill:none" d="M758.950745,596.178894C735.061829,589.483521,723.895081,573.450378,723.920166,545.882263C723.932983,531.77478,725.325562,524.210571,729.528809,515.417114C733.266418,507.597809,738.149597,503.030914,747.844971,498.287415C752.812805,495.856873,754.609497,495.573944,767.407593,495.206757L781.5,494.802399L790.5,499.362854C801.426086,504.899261,808.4422,511.488983,813.276917,520.755493C817.281067,528.430237,818.689331,534.366638,819.789978,548.211487C820.701843,559.680786,819.481079,566.441284,814.969727,574.905396C811.185608,582.005188,808.169312,585.276855,801.437927,589.582825C792.411987,595.356689,786.573669,597.163696,775.5,597.610718C767.875,597.918579,763.94458,597.578552,758.950745,596.178894z"/>
    <path transform="matrix(0.243577,0,0,-0.243577,-0.118759,83.71151)" style="stroke:#0000a0;stroke-width:0.205274mm;fill:none" d="M778.282104,567.619263C782.203735,565.936523,787.499207,560.502991,788.93866,556.684875C789.5224,555.136597,790,551.453369,790,548.5C790,541.789612,788.748169,538.410889,784.68866,534.164673C780.078918,529.342896,776.879089,528,770,528C766.645386,528,762.685547,528.636597,761.200317,529.414673C757.271423,531.473022,752.440002,536.985168,751.134094,540.899231C749.707642,545.174744,749.67157,552.998657,751.06134,556.684875C752.455933,560.383972,757.735107,565.893311,761.5,567.578735C765.43103,569.338501,774.22583,569.359741,778.282104,567.619263z"/>
    <path transform="matrix(0.243577,0,0,-0.243577,-0.118759,83.71151)" style="stroke:#4a6fe3;stroke-width:0.205274mm;fill:none" d="M384.293518,590.187378C382.529968,586.509338,378.109192,577.424988,374.469604,570C370.830017,562.575012,367.036285,554.474976,366.039124,552C362.905212,544.221619,341.769348,497.554352,340.848114,496.379181C340.214478,495.570831,343.634338,495.055664,353.115265,494.531311C361.181091,494.085236,366.500397,494.171936,366.880493,494.755707C372.082428,502.744873,387.508087,522.804016,388.146454,522.409485C388.615906,522.119324,389,515.645996,389,508.024323C389,499.708832,389.398499,494.033356,389.996399,493.833344C390.544434,493.649994,396.39444,493.901672,402.996399,494.392609L415,495.285248L415.020569,498.392609C415.179474,522.395081,414.954254,547.540466,414.38147,569.75L413.67865,597L400.589325,596.937378L387.5,596.874756L384.293518,590.187378z"/>
    <path transform="matrix(0.243577,0,0,-0.243577,-0.118759,83.71151)" style="stroke:#0000a0;stroke-width:0.205274mm;fill:none" d="M389.828094,543.552063C390.008514,542.015503,389.887451,539.687744,389.559021,538.37915C389.055267,536.372009,388.339386,536,384.980957,536C382.791412,536,381,536.298096,381,536.662476C381,538.341919,387.385986,547.038696,388.379944,546.712891C388.995972,546.510986,389.647644,545.088623,389.828094,543.552063z"/>
    <path transform="matrix(0.243577,0,0,-0.243577,-0.118759,83.71151)" style="stroke:#4a6fe3;stroke-width:0.205274mm;fill:none" d="M266.420044,591.31543C265.596924,585.826355,266.604736,496.448547,267.506226,494.989929C268.215393,493.842468,291.92984,493.61145,292.135437,494.75C292.20993,495.162506,292.547455,504.5,292.885437,515.5L293.5,535.5L301.5,535.5L309.5,535.5L309.714386,520C309.832306,511.475006,309.944824,502.137512,309.964386,499.25L310,494L321.838745,494L333.67749,494L334.338745,524.162903C334.702423,540.752502,335,563.702515,335,575.162903L335,596L323.098175,596L311.196381,596L310.626831,590.25C310.313599,587.087524,309.768616,578.969482,309.415741,572.209961L308.77417,559.919922L301.137085,560.209961L293.5,560.5L293.226929,578.25L292.953857,596L280.038208,596L267.122559,596L266.420044,591.31543z"/>
    <path transform="matrix(0.243577,0,0,-0.243577,-0.118759,83.71151)" style="stroke:#ff00ff;stroke-width:0.205274mm;fill:none" d="M293.5,655.338379C291.850006,654.468506,289.600006,652.968262,288.5,652.004456C287.399994,651.040649,284.475006,649.12677,282,647.751404C275.662262,644.229431,265.813904,638.130615,256.773132,632.129211C252.523361,629.308167,248.668976,627,248.207825,627C247.746674,627,243.34877,624.179504,238.434692,620.732178C233.520615,617.284851,227.024994,612.854431,224,610.886719C189.379166,588.366882,174,577.661987,174,576.083435C174,574.804443,177.151962,572.486755,183.726669,568.931274C187.151321,567.079285,190.187775,564.953064,190.474319,564.206299C190.774872,563.423096,187.71698,559.379578,183.247665,554.650269C167.88887,538.39801,155.073822,524.421143,151.818604,520.371765C147.125107,514.533203,139.632477,505.735809,131.913193,497C128.268188,492.875,122.241356,485.899994,118.520233,481.5C111.39238,473.071747,101.609131,462.183472,86.210091,445.540405C81.100639,440.018188,70.203201,428.015137,61.993557,418.866974C53.783916,409.718811,42.776875,398.207581,37.533466,393.286469C32.290062,388.365356,28,383.83313,28,383.214813C28,382.596497,29.4625,381.84433,31.25,381.543304C40.344276,380.01178,92.802315,374.596222,97.5,374.703949C99.699997,374.754364,108.925003,377.345367,118,380.4617C127.074997,383.578033,142.824997,388.984131,153,392.47525C163.175003,395.9664,177.125,400.838959,184,403.303192C219.028656,415.858582,225.739578,418.298676,228.5,419.483459C230.149994,420.19165,236.225006,422.43866,242,424.476837C247.774994,426.515015,253.399994,428.574982,254.5,429.054504C255.600006,429.534058,260.774994,431.54306,266,433.518951C291.056213,442.994263,294.772217,444.424316,298.5,446.02597C300.700012,446.971191,304.857208,448.511444,307.738251,449.448761C310.619263,450.386047,313.19281,451.50296,313.457214,451.930786C314.346405,453.369507,283.323517,477.717072,278,479.758545C277.174988,480.074921,272.392548,483.398895,267.372314,487.145142C262.352081,490.891388,257.082367,494.398376,255.66185,494.938477C252.768326,496.038574,242.939697,494.524506,229.5,490.908325C218.583038,487.970917,216.341858,487.637848,215.597534,488.842194C215.245911,489.411102,219.593338,495.641876,225.258469,502.688293C230.923599,509.734741,236.588638,516.962524,237.847458,518.75C240.7966,522.937805,243.086029,522.873047,249.553253,518.418884C254.307907,515.144226,255.062302,514.923218,258.368591,515.836121C260.634949,516.461853,262.202911,516.480713,262.570099,515.886536C262.892303,515.365234,262.837891,510.452454,262.449158,504.96933C261.779602,495.525299,261.844635,495,263.683105,495C264.750549,495,266.547791,493.750336,267.677002,492.222992C268.806244,490.695648,276.203369,485.119751,284.115082,479.832123C292.026794,474.544525,299.850006,468.960968,301.5,467.424225C306.636993,462.639862,320.941986,452.879272,324.299133,451.86795C327.998108,450.753632,344.449524,450.500549,348.948792,451.488739C351.051453,451.950562,352.190979,452.912781,352.609344,454.579651C353.395477,457.711884,354.728668,457.634125,358.260956,454.25C361.072205,451.556641,361.382965,451.5,373.351013,451.5L385.570679,451.5L394.56189,459.128326C399.50708,463.323883,404.158783,467.486389,404.899017,468.378326C407.807739,471.883118,411.131439,469.466187,422.217621,455.784546C425.45639,451.787537,426.568817,451.109436,430.85434,450.52002C437.907013,449.550049,445,450.766937,445,452.946869C445,455.810028,446.231049,456.131561,448.615753,453.891266C451.345428,451.326843,458.055634,449.951813,463.438232,450.853851C466.888947,451.432129,467.490753,451.946259,468.299896,455.006927C468.8078,456.928101,468.995697,461.875,468.717407,466C467.97287,477.037231,469.102051,478.72168,472.815857,472.113831C474.017151,469.976471,475,467.649841,475,466.943604C475,466.237366,476.39267,462.638092,478.094818,458.945221C481.653229,451.225128,482.110809,451.030548,496.75,451.011017C505.895905,450.99881,505.983826,451.082825,504.013397,457.953247C503.470764,459.845276,502.789612,463.369385,502.499695,465.784576C501.60437,473.243073,504.171204,470.236847,507.073334,460.42804L509.714844,451.5L516.107422,450.693634C519.623352,450.250153,529.668884,450.114014,538.430847,450.391144C551.738098,450.812012,554.51123,451.16217,555.269592,452.517273C556.104858,454.009766,556.274048,454.007507,557.384277,452.489105C558.411743,451.084015,561.483154,450.767059,578.045593,450.356873C588.745483,450.091888,601.775024,450.244568,607,450.696167C613.535767,451.261047,617.592102,451.159515,620,450.370758C622.386047,449.589142,625.568787,449.50235,630,450.097992C635.757263,450.871887,636.878723,451.400787,639.814087,454.726624L643.128174,458.481506L645.047546,455.990753C646.10321,454.62085,647.214172,452.761383,647.516418,451.858612C648.173645,449.895233,653.883789,448.996124,662.5,449.49939C665.799988,449.692108,669.282715,449.883606,670.239441,449.924896C671.196106,449.966217,674.463379,452.25,677.5,455C680.536621,457.75,683.318359,460,683.68158,460C684.307373,460,695.592529,454.879242,699.174377,452.970001C703.471069,450.679718,713.511169,449.736847,720.696655,450.948822C733.575073,453.121063,757.962891,467.53067,792.078125,493.124786C807.808472,504.926086,813.381042,510.43985,818.65918,519.425415C820.250427,522.134338,822.002258,524.500732,822.552124,524.684021C823.10199,524.86731,826.011475,520.850891,829.017639,515.758667C832.023804,510.666382,836.398682,503.575012,838.739685,500C843.385132,492.905701,844.076599,490,841.119263,490C840.0849,490,834.93103,491.559265,829.66626,493.465057C819.141235,497.274933,820.152954,497.375031,811,491.618683C805.513,488.167877,801.990601,485.895966,791,478.718903C786.325012,475.666016,781.150024,472.580109,779.5,471.861267C776.948853,470.749847,767.183899,463.919739,756.75,455.948761C753.570496,453.519775,753.281311,452.18515,755.75,451.333496C756.712524,451.001434,760.802612,449.215576,764.839111,447.364868C768.875671,445.514191,772.410156,444,772.693604,444C772.97699,444,780.924377,440.227051,790.354431,435.615692C799.784485,431.004333,816.950012,422.662109,828.5,417.077423C840.049988,411.492737,850.174988,406.489624,851,405.959351C851.825012,405.429077,853.57135,404.535065,854.880798,403.972656C856.951965,403.083038,866.898438,398.1716,872.593994,395.226074C873.642334,394.68396,880.125,391.443634,887,388.025391C893.875,384.607117,903.068909,379.873718,907.430908,377.506683C911.792908,375.139648,916.912842,372.951263,918.808655,372.643616C922.023193,372.121979,929.93689,372.963196,956,376.597107C961.775024,377.402283,972.575012,378.704926,980,379.491821C993.048645,380.874725,1006.128235,382.794922,1006.752686,383.419342C1007.405762,384.072388,1003.369873,391.766876,1000.813232,394.743103C999.983154,395.709412,999.023682,397.290131,998.681152,398.255859C998.338562,399.221588,990.696533,411.821594,981.698853,426.255859C972.701111,440.690125,963.595398,455.424988,961.463806,459C959.332214,462.575012,954.679199,469.774994,951.123657,475C947.568176,480.225006,942.855286,487.200012,940.650513,490.5C938.445801,493.799988,933.648499,500.549988,929.989929,505.5C922.484558,515.654602,918.657349,521.037659,913.282104,529C911.23999,532.025024,909.304871,534.724976,908.981812,535C908.658813,535.275024,906.39325,538.424988,903.947266,542C901.501282,545.575012,899.275024,548.724976,899,549C898.724976,549.275024,898.049988,550.243469,897.5,551.1521C896.950012,552.06073,894.421631,555.885742,891.88147,559.6521C884.312927,570.873962,884.242676,571.091431,887.417725,573.466125C888.913391,574.584778,893.593811,577.36145,897.818604,579.636536C902.043335,581.911682,905.5,584.386658,905.5,585.136536C905.5,586.860535,895.918701,593.264404,878.025024,603.5C858.401123,614.725342,859.644775,613.221863,865.642822,618.46875C872.09314,624.111328,873.89856,629.406921,872.104736,637.422485C870.795349,643.273682,868.405518,646.096985,862.768494,648.452271C858.056152,650.421204,852.947205,650.421143,848.217896,648.452026C844.559204,646.928711,843.249756,645.70105,836.26947,637.25C834.338745,634.912476,832.025757,633.002686,831.129517,633.005981C830.233276,633.009277,823.875,636.528015,817,640.825317C799.411743,651.819214,791.174133,656.280823,789.588074,655.67218C788.15564,655.122498,778.984924,644.489563,773,636.43927C771.075012,633.849976,767.568665,629.505676,765.20813,626.785217C760.113281,620.913513,760.18927,620.303345,767.163574,611.090515C769.849304,607.542786,771.895813,604.187439,771.711426,603.634216C771.526978,603.080994,767.636719,601.823853,763.066284,600.840698C749.856262,597.99884,740.999512,593.062988,730.668945,582.785583C725.811829,577.953552,721.428833,574,720.928894,574C720.428955,574,718.737793,576.8125,717.170715,580.25C714.014404,587.173523,707.490295,593.892578,701.317505,596.576782C691.339355,600.915771,687.791687,601.168579,632.204041,601.501648C602.891296,601.677307,576.806396,601.520447,574.237671,601.153015L569.567261,600.484924L566.755371,592.992432C559.546021,573.782898,559.811707,575.298645,559.132202,549.5L558.5,525.5L545.730164,525.219971C536.059448,525.007935,532.847107,525.25061,532.493958,526.219971C532.237488,526.924011,531.873108,543.810791,531.684204,563.746277C531.495361,583.681702,531.001282,600.331665,530.586304,600.746277C529.615784,601.71582,498.357208,601.690552,497.386108,600.719421C496.983124,600.316467,496.735992,588.319153,496.836945,574.058716C496.950714,557.982849,496.647736,547.90033,496.039551,547.524414C495.500031,547.190979,494.843719,547.949097,494.581085,549.209106C493.611115,553.862122,492.103058,564.700928,491.479614,571.5C490.274689,584.640686,483.465424,594.181519,472.453613,598.158325C466.871216,600.174316,464.380005,600.32605,432.5,600.591797C413.799988,600.747681,395.658051,600.622742,392.18457,600.314087C386.248718,599.786743,385.733124,599.535034,383.605621,596.126526C382.360657,594.131897,378.752655,586.875,375.58783,580C372.423004,573.125,369.248535,566.893555,368.533447,566.152405C366.532928,564.078796,363.79718,566.075256,358.11145,573.75824C339.612427,598.755432,338.727142,599.75354,334.5,600.378601C330.11496,601.027039,308.264404,599.597717,307.263672,598.596985C306.920685,598.254028,306.439636,594.154419,306.194641,589.486694C305.673279,579.553528,304.216553,578.461365,301.046783,585.627136C298.343872,591.737488,298.341278,596.014954,301.040039,596.720703C302.162079,597.01416,303.748627,598.546997,304.565735,600.127075C305.382813,601.707214,306.667114,603,307.419739,603C308.918945,603,321.958282,617.0849,323.934265,620.838745C325.026764,622.914185,324.762543,623.758423,321.58667,628.338745C308.317963,647.475281,300.367798,657.03949,297.795441,656.959961C297.082947,656.937927,295.149994,656.208252,293.5,655.338379z"/>
</svg>
