<?xml version="1.0" encoding="UTF-8" standalone="no"?>
<!-- Created with Inkscape (http://www.inkscape.org/) -->

<svg
   width="210mm"
   height="297mm"
   viewBox="0 0 210 297"
   version="1.1"
   id="svg1"
   xml:space="preserve"
   inkscape:export-filename="bitmap.svg"
   inkscape:export-xdpi="96"
   inkscape:export-ydpi="96"
   xmlns:inkscape="http://www.inkscape.org/namespaces/inkscape"
   xmlns:sodipodi="http://sodipodi.sourceforge.net/DTD/sodipodi-0.dtd"
   xmlns="http://www.w3.org/2000/svg"
   xmlns:svg="http://www.w3.org/2000/svg"><sodipodi:namedview
     id="namedview1"
     pagecolor="#ffffff"
     bordercolor="#000000"
     borderopacity="0.25"
     inkscape:showpageshadow="2"
     inkscape:pageopacity="0.0"
     inkscape:pagecheckerboard="0"
     inkscape:deskcolor="#d1d1d1"
     inkscape:document-units="mm" /><defs
     id="defs1" /><g
     inkscape:label="Layer 1"
     inkscape:groupmode="layer"
     id="layer1"><path
       style="fill:#000000"
       d="m 129.36821,43.314899 c -3.63895,-1.87123 -4.81562,-2.469782 -5.1394,-2.614347 -0.19552,-0.0873 -0.82014,-0.395689 -1.38805,-0.685311 -0.56791,-0.289623 -1.18795,-0.593328 -1.37786,-0.6749 -0.18992,-0.08157 -0.44321,-0.21124 -0.56287,-0.288149 -0.11965,-0.07691 -1.58817,-0.802556 -3.26336,-1.612549 -1.6752,-0.809994 -4.16485,-2.019937 -5.53258,-2.688763 -1.36772,-0.668825 -2.52039,-1.216047 -2.5615,-1.216047 -0.0411,0 -0.55375,-0.219616 -1.1392,-0.488037 -0.58545,-0.26842 -1.17867,-0.527441 -1.31827,-0.575602 -0.35805,-0.123524 -0.31611,-0.317095 0.14504,-0.669389 1.51331,-1.156101 2.92961,-2.14673 3.29962,-2.307928 0.23932,-0.104258 0.98989,-0.551837 1.66794,-0.99462 2.36694,-1.545657 3.38265,-2.189104 3.87997,-2.457942 0.27732,-0.149914 0.53956,-0.101778 1.74046,0.319471 0.77767,0.27279 1.52816,0.497398 1.66776,0.499129 0.4093,0.0051 0.29849,-0.435375 -0.36409,-1.447237 -0.33953,-0.518512 -0.97407,-1.547037 -1.41008,-2.285609 -0.43601,-0.738573 -0.858,-1.321109 -0.93775,-1.294525 -0.0798,0.02658 -0.33383,0.369801 -0.56462,0.762705 -0.2308,0.392904 -0.68428,1.030529 -1.00773,1.416943 -1.10947,1.325402 -7.85412,6.126481 -10.62864,7.565835 -1.71791,0.891212 -2.62509,1.137116 -3.89432,1.055607 -1.001284,-0.0643 -1.239754,-0.142325 -3.068784,-1.004028 -0.48494,-0.228464 -0.9294,-0.415388 -0.9877,-0.415388 -0.0583,0 -0.45531,0.330364 -0.88224,0.734143 l -0.77625,0.734143 -1.28187,0.07074 c -1.53572,0.08475 -2.17961,-0.0129 -2.29136,-0.347496 -0.0457,-0.136829 -0.20836,-0.411344 -0.36147,-0.610035 l -0.27839,-0.361256 -0.48067,0.547856 c -0.40996,0.467257 -0.6087,0.568271 -1.3509,0.686623 -0.87878,0.14013 -1.75231,0.06614 -1.89224,-0.160271 -0.0418,-0.06768 -0.24116,-0.06028 -0.44295,0.01644 -0.2018,0.07672 -2.08854,0.139496 -4.19276,0.139496 -3.72081,0 -3.83171,-0.0084 -4.03895,-0.30424 l -0.2131,-0.304241 -0.1643,0.306998 c -0.16074,0.30033 -0.23404,0.306151 -3.37544,0.267981 l -3.211139,-0.03902 -0.19994,-0.725192 c -0.10996,-0.398856 -0.2805,-1.014505 -0.37897,-1.368109 -0.23279,-0.835934 -0.5632,-0.982122 -0.46167,-0.204263 0.04,0.306406 0.1394,0.785107 0.22092,1.06378 0.34186,1.168716 0.3516,1.161265 -1.51765,1.161265 h -1.66585 l -0.45321,-0.8978 c -0.24926,-0.49379 -0.54473,-1.195414 -0.6566,-1.559164 -0.22028,-0.716284 -0.57735,-1.274825 -0.72231,-1.129865 -0.0498,0.04976 -0.0801,0.838844 -0.0675,1.753516 0.0162,1.173276 -0.0291,1.695232 -0.15384,1.77235 -0.0973,0.06012 -0.6564,0.109309 -1.24249,0.109309 -0.95819,0 -1.10653,-0.03919 -1.47144,-0.3888 -0.41667,-0.399196 -0.60326,-0.380936 -0.60326,0.05903 0,0.343171 -0.28891,0.426459 -1.479313,0.426459 -1.144244,0 -1.060615,0.059 -2.845756,-2.007523 -0.792781,-0.917741 -1.147669,-1.072614 -1.494975,-0.652406 -0.109482,0.132463 -0.807232,0.752502 -1.550557,1.377866 l -1.3515,1.137025 h -1.653002 c -1.62985,0 -1.659943,-0.0061 -2.148571,-0.435115 -0.570367,-0.500789 -0.819871,-0.550332 -0.819871,-0.162798 0,0.427214 -0.28159,0.551927 -1.450385,0.642359 -1.97708,0.152971 -2.721679,-0.02245 -4.094631,-0.964672 -0.665441,-0.456674 -1.468573,-1.062558 -1.784737,-1.346408 -0.316165,-0.28385 -1.509297,-1.141665 -2.651407,-1.906255 -1.142109,-0.764591 -2.188865,-1.532935 -2.326124,-1.707431 -0.137259,-0.174497 -0.403024,-0.365974 -0.590589,-0.425505 -0.333986,-0.106003 -0.339519,-0.1371 -0.268022,-1.506178 0.04015,-0.768868 0.04702,-1.469865 0.01527,-1.557772 -0.04122,-0.1141 -0.217519,-0.117184 -0.616173,-0.01078 -0.515289,0.137538 -0.602423,0.114217 -1.127743,-0.301845 -0.313119,-0.247994 -0.743796,-0.494693 -0.957061,-0.548219 -0.447902,-0.112416 -0.272964,-0.288891 -2.578103,2.600748 -1.197023,1.500546 -1.558464,2.046324 -1.415288,2.137097 0.256737,0.162771 0.301449,0.159203 1.021183,-0.08148 0.802183,-0.268255 2.896744,-0.760936 3.759481,-0.884301 0.80282,-0.114797 0.923146,-0.05905 2.663541,1.234118 0.71794,0.53345 1.403247,1.007453 1.522904,1.053339 0.846721,0.324701 5.300156,3.860264 5.106439,4.05398 -0.06574,0.06574 -0.507325,0.251816 -0.9813,0.413502 -0.473976,0.161686 -0.992308,0.353449 -1.15185,0.426139 -0.159543,0.07269 -0.649048,0.272099 -1.087789,0.443131 -0.438742,0.171032 -1.091415,0.429646 -1.450385,0.574697 -0.35897,0.145051 -1.240079,0.473996 -1.958019,0.730989 -0.717941,0.256993 -1.579152,0.589283 -1.913803,0.738421 -0.334651,0.149138 -0.660988,0.271478 -0.725192,0.271867 -0.154844,9.36e-4 -2.748044,0.963315 -3.329503,1.235633 -0.251369,0.117725 -0.508389,0.214045 -0.571156,0.214045 -0.104482,0 -5.111165,1.789362 -6.296252,2.250247 -0.645999,0.251231 -2.471739,0.890393 -4.78627,1.6756 -0.99714,0.33827 -2.530922,0.86801 -3.408405,1.17718 -3.169396,1.1167 -3.468674,1.17732 -4.931308,0.99897 -0.7179406,-0.0875 -2.6106926,-0.2935 -4.2061156,-0.45768 -1.595424,-0.16418 -3.249205,-0.33624 -3.67507,-0.38234 -0.466993,-0.0506 -0.805262,-0.16452 -0.852315,-0.28713 -0.0487,-0.12691 0.448463,-0.69743 1.323047,-1.518257 0.770586,-0.723219 2.375285,-2.400538 3.565999,-3.727373 1.190714,-1.326836 2.771262,-3.067739 3.512329,-3.868674 2.2334536,-2.413885 3.6524016,-3.993103 4.6862146,-5.215525 0.539706,-0.638169 1.413828,-1.649813 1.942495,-2.248096 1.119593,-1.267027 2.206312,-2.542989 2.88705,-3.389805 0.472132,-0.587317 2.330807,-2.614504 4.558423,-4.971702 0.648224,-0.685931 1.091735,-1.2724 1.048144,-1.385995 -0.04156,-0.108305 -0.481962,-0.416691 -0.97867,-0.685303 -0.953584,-0.515681 -1.410741,-0.851836 -1.410741,-1.03734 0,-0.228948 2.23057,-1.781571 7.251924,-5.0478162 0.438742,-0.285389 1.380855,-0.927973 2.093586,-1.427966 0.71273,-0.499992 1.350596,-0.909076 1.41748,-0.909076 0.06688,0 0.625919,-0.334771 1.2423,-0.743935 1.311262,-0.870437 2.739652,-1.754992 3.658867,-2.265816 0.35897,-0.199486 0.783207,-0.472959 0.94275,-0.607719 0.511057,-0.43167 1.069663,-0.733685 1.357021,-0.733685 0.175105,0 0.623771,0.430436 1.201671,1.152844 1.521224,1.901619 2.735212,3.598382 2.735212,3.822942 0,0.288296 -2.286034,2.8562922 -2.542676,2.8562922 -0.113083,0 -0.306859,0.195802 -0.430613,0.435116 -0.123753,0.239313 -0.319988,0.435115 -0.436076,0.435115 -0.116089,0 -0.252685,0.165808 -0.303548,0.368461 -0.119449,0.475923 0.398505,1.863325 0.719226,1.92653 0.20551,0.0405 0.237956,-0.120233 0.237956,-1.178808 0,-0.805587 0.06214,-1.276013 0.181298,-1.372484 0.225338,-0.182435 3.551893,-0.389455 4.117499,-0.256241 0.40728,0.09592 0.822681,0.590868 3.259367,3.883489 0.824651,1.114327 1.22144,1.403899 1.511595,1.103145 0.103713,-0.107501 0.562868,-1.011298 1.020345,-2.008438 0.457476,-0.997139 1.003887,-2.07405 1.214246,-2.393135 l 0.38247,-0.580154 h 5.795928 c 5.741514,0 5.804414,0.0032 6.699104,0.342781 1.63025,0.618726 2.51876,1.898176 2.78438,4.009482 0.36021,2.863191 0.42407,3.288632 0.50593,3.370494 0.12385,0.123843 0.14199,-0.382489 0.15024,-4.193284 0.004,-1.887805 0.0616,-3.486855 0.12789,-3.553442 0.20048,-0.201489 4.578769,-0.241155 4.816769,-0.04364 0.16894,0.140207 0.20574,0.937225 0.20642,4.470273 4.5e-4,2.364804 0.0431,4.769219 0.0948,5.343145 l 0.094,1.043501 0.79795,0.0997 c 0.7886,0.09853 2.61264,-0.0035 2.76374,-0.154614 0.0429,-0.04292 0.10438,-1.529336 0.13659,-3.303155 0.0531,-2.924097 0.0907,-3.319888 0.4033,-4.240394 0.78691,-2.317523 1.0911,-3.055551 1.3324,-3.232648 0.34964,-0.256619 16.6016,-0.165562 17.58858,0.09855 1.87472,0.501657 3.483664,1.868474 3.824644,3.249092 0.055,0.222787 0.18713,0.438485 0.29357,0.479328 0.11166,0.04285 0.73868,-0.468689 1.48232,-1.209326 1.04924,-1.044993 1.51796,-1.393703 2.52163,-1.875986 1.07589,-0.516986 1.58806,-0.679507 3.15459,-1.001001 0.17948,-0.03683 0.32633,-0.119527 0.32633,-0.18376 0,-0.06423 -0.35897,-0.5965972 -0.79771,-1.1830332 -0.43874,-0.586436 -0.79771,-1.162227 -0.79771,-1.279535 0,-0.117308 0.27739,-0.518886 0.61641,-0.892396 0.33903,-0.373509 0.84485,-0.988801 1.12405,-1.367315 0.84521,-1.145857 2.1951,-2.714005 2.40591,-2.794898 0.23004,-0.08828 1.42481,0.558829 3.97579,2.153362 0.99713,0.623279 1.91933,1.133627 2.04932,1.134105 0.12999,4.78e-4 0.46546,-0.276517 0.74549,-0.615545 1.35,-1.634446 1.68108,-1.850964 2.82032,-1.844422 1.46956,0.0084 2.48478,1.013412 2.50005,2.474812 0.009,0.867778 -0.28983,1.440649 -1.12346,2.153213 -0.80478,0.687907 -0.98282,0.485718 1.85925,2.1114462 2.59528,1.484558 3.98493,2.41336 3.98493,2.663406 0,0.108763 -0.50134,0.467734 -1.1141,0.797712 -0.61276,0.329978 -1.29159,0.732706 -1.50852,0.894952 -0.46051,0.344421 -0.45032,0.37596 0.64741,2.003564 0.36843,0.546265 0.73513,1.101037 0.8149,1.232827 0.0798,0.131789 0.17768,0.272251 0.21756,0.312136 0.0399,0.03989 0.36278,0.496757 0.71754,1.01527 0.35477,0.518512 0.68336,0.975384 0.73021,1.015269 0.0468,0.03989 0.32752,0.43149 0.62371,0.870231 0.77962,1.154847 1.33471,1.935595 2.42327,3.408405 0.53064,0.71794 1.22643,1.69695 1.5462,2.175577 0.31977,0.478627 1.00333,1.49027 1.51901,2.248096 0.51569,0.757826 1.19056,1.802104 1.49972,2.320616 0.30916,0.518513 1.62984,2.655635 2.93485,4.74916 1.30502,2.093525 2.41341,3.92101 2.46309,4.061077 0.0497,0.140068 0.18884,0.369336 0.30924,0.509485 0.40063,0.466371 0.95446,1.549371 0.84719,1.656641 -0.10199,0.10198 -1.5587,0.33017 -3.50332,0.54878 -1.85222,0.20823 -3.7241,0.45012 -6.74428,0.87152 -2.27953,0.31807 -2.41372,0.30273 -3.8601,-0.44102 z m 12.99752,-1.77808 c 0,-0.0661 -0.18413,-0.40875 -0.40918,-0.761455 -0.22504,-0.352704 -0.83643,-1.35922 -1.35864,-2.236703 -1.33342,-2.240601 -3.27364,-5.403299 -3.73701,-6.091616 -0.2148,-0.319085 -0.6188,-0.939124 -0.89777,-1.377866 -1.47011,-2.312094 -4.68075,-7.087979 -5.70397,-8.484751 -0.64281,-0.877483 -1.52055,-2.117562 -1.95054,-2.755732 -0.42998,-0.638169 -1.02209,-1.486644 -1.31579,-1.8855 -0.2937,-0.398856 -1.03703,-1.410499 -1.65184,-2.248096 -0.61481,-0.837598 -1.42498,-1.911106 -1.80039,-2.385574 -0.80078,-1.012104 -1.11019,-1.530465 -0.91352,-1.530465 0.0775,0 0.91173,0.187068 1.85387,0.415707 2.01626,0.489304 3.09124,0.663143 3.08986,0.49967 -10e-4,-0.161684 -0.59618,-0.548041 -3.04481,-1.977706 -2.07068,-1.2089932 -2.85003,-1.6783142 -4.85879,-2.9259722 -5.54699,-3.445267 -6.54421,-4.031336 -6.74541,-3.964269 -0.0857,0.02855 0.28584,0.736334 0.82556,1.572847 1.13791,1.763647 2.43266,3.878699 4.12739,6.7423192 0.66094,1.116796 1.55123,2.575359 1.97843,3.241251 0.42721,0.665892 0.81643,1.318565 0.86494,1.450385 0.0485,0.13182 0.25179,0.500742 0.45173,0.819826 0.33184,0.52959 0.80071,1.333889 1.69102,2.90077 0.18131,0.319085 0.9891,1.714304 1.7951,3.100487 0.806,1.386183 1.46545,2.541526 1.46545,2.567428 0,0.0259 0.44573,0.817138 0.99051,1.758302 1.03774,1.792784 1.24437,2.220185 1.07174,2.216796 -0.24556,-0.0048 -3.9625,-1.159214 -4.8905,-1.518873 -1.10037,-0.426461 -6.08602,-2.105043 -6.25231,-2.105043 -0.056,0 0.0163,0.130535 0.16069,0.290077 0.14439,0.159542 0.31288,0.290077 0.37443,0.290077 0.0616,0 0.58989,0.315087 1.17409,0.700193 0.5842,0.385106 1.54003,0.988828 2.12408,1.341606 0.58405,0.352777 1.21527,0.739314 1.4027,0.858971 1.19977,0.765931 8.29954,4.931308 8.40528,4.931308 0.0386,0 0.70892,0.370471 1.48951,0.823268 0.7806,0.452797 1.58243,0.911762 1.78186,1.019922 0.19943,0.108159 1.27634,0.754285 2.39313,1.435834 1.1168,0.681549 2.48741,1.489053 3.04581,1.794454 0.5584,0.3054 1.40303,0.789953 1.87697,1.076783 0.88205,0.53383 1.09632,0.61227 1.09632,0.40134 z M 5.1326794,40.573246 c 0.852248,-0.436516 2.920155,-1.457359 4.59535,-2.26854 1.6751936,-0.811182 4.3837876,-2.122356 6.0190966,-2.91372 1.635309,-0.791364 4.996576,-2.441362 7.469482,-3.666662 2.472906,-1.2253 5.79375,-2.855327 7.379653,-3.622282 1.585903,-0.766955 2.852957,-1.424966 2.815677,-1.462247 -0.08835,-0.08835 -5.465046,1.185213 -9.25258,2.191622 -3.051644,0.810872 -3.480924,0.890537 -3.480924,0.645988 0,-0.17841 1.692987,-2.700289 2.996636,-4.463799 0.545557,-0.738003 1.41616,-1.93137 1.934673,-2.651928 0.518512,-0.720558 1.093761,-1.519985 1.27833,-1.776505 0.184569,-0.25652 0.478272,-0.630696 0.652673,-0.831503 1.038143,-1.195324 1.865785,-2.202012 2.412601,-2.934522 0.342406,-0.458684 0.679981,-0.833971 0.750169,-0.833971 0.07019,0 0.127612,0.848475 0.127612,1.8855 0,1.577977 0.03543,1.8855 0.217213,1.8855 0.209351,0 2.293268,-1.108808 3.416239,-1.817709 0.70008,-0.441941 0.721325,-0.574633 0.785867,-4.908417 l 0.05125,-3.4410202 0.520792,-0.609188 c 1.069005,-1.250451 4.021936,-5.060301 3.965708,-5.116528 -0.0763,-0.0763 -2.619215,1.445898 -4.864511,2.911918 -0.977394,0.638169 -2.705982,1.76199 -3.841307,2.497381 -2.412216,1.5624772 -6.080533,4.0927982 -6.705459,4.6252722 -0.420988,0.358707 -0.423342,0.367463 -0.07252,0.269664 0.199428,-0.05559 1.341606,-0.476663 2.538174,-0.935708 1.196567,-0.459046 2.19649,-0.78044 2.22205,-0.714209 0.03781,0.09797 -1.675571,2.194276 -2.00432,2.452274 -0.380043,0.298253 -7.466256,8.180959 -10.370424,11.536063 -4.115049,4.754002 -8.9131386,10.057982 -11.6975916,12.930939 -1.390412,1.434606 -1.773199,1.93 -1.491288,1.93 0.04518,0 0.779435,-0.357147 1.631683,-0.793663 z M 39.915971,25.920313 c 0.05524,-0.239314 0.111387,-1.54466 0.124766,-2.90077 0.01338,-1.35611 0.03524,-2.549984 0.04859,-2.653053 0.01802,-0.13915 0.313672,-0.176493 1.148313,-0.145039 l 1.124048,0.04236 0.0079,2.610693 c 0.0043,1.435881 0.02065,2.790178 0.03626,3.009548 l 0.02838,0.398856 h 1.724233 1.724233 l 0.096,-3.372145 c 0.141442,-4.968482 0.169268,-11.235797 0.05042,-11.355461 -0.158039,-0.15912 -2.0336,-0.260924 -2.770688,-0.150391 -0.359404,0.0539 -0.687069,0.185573 -0.728145,0.292615 -0.04108,0.107043 -0.121484,1.278723 -0.178685,2.603733 l -0.104,2.409109 h -1.051472 c -0.831564,0 -1.07016,-0.0487 -1.14083,-0.232865 -0.04915,-0.128076 -0.08267,-1.275035 -0.07449,-2.548799 0.0082,-1.273763 -0.01813,-2.348933 -0.05846,-2.389266 -0.160771,-0.160771 -3.565087,-0.120957 -3.730745,0.04363 -0.182321,0.181144 -0.220741,11.239478 -0.04689,13.496363 l 0.09164,1.18966 0.742066,0.0441 c 0.408137,0.02426 1.213459,0.04368 1.789604,0.04317 1.044637,-9.31e-4 1.047815,-0.0021 1.147978,-0.436049 z m 17.747277,0.230553 c 0.09338,-0.0167 0.05934,-6.815575 -0.05526,-11.03592 -0.04873,-1.794852 -0.08887,-3.377584 -0.08919,-3.517184 -5.28e-4,-0.228943 -0.189105,-0.253817 -1.92428,-0.253817 h -1.923695 l -0.531141,1.051529 c -0.961654,1.903839 -2.399578,4.937313 -3.214107,6.780549 -0.440638,0.99714 -1.317777,2.955159 -1.949198,4.351155 l -1.148038,2.538173 0.522407,0.100421 c 0.287324,0.05523 1.142447,0.102163 1.900273,0.104294 l 1.377866,0.0039 0.452733,-0.611929 c 0.249004,-0.336561 0.940451,-1.280217 1.53655,-2.097014 0.5961,-0.816797 1.126627,-1.442275 1.17895,-1.389952 0.05232,0.05232 0.09513,0.992558 0.09513,2.089412 0,1.187142 0.05813,2.013846 0.14362,2.042625 0.112315,0.03781 3.313332,-0.100046 3.627381,-0.156216 z m -4.641707,-6.503468 c 0.477031,-0.841943 0.692912,-1.088892 0.861056,-0.984973 0.169603,0.10482 0.200432,0.690727 0.06327,1.202531 -0.07196,0.268538 -0.188855,0.326337 -0.659973,0.326337 h -0.572518 z m 9.089536,6.587022 c 0.0665,-0.06655 0.098,-1.22505 0.07,-2.574433 -0.0348,-1.680082 -0.002,-2.453425 0.1046,-2.453425 0.0855,0 0.72203,1.134263 1.41452,2.520584 l 1.25907,2.520584 0.73938,0.08885 c 0.40667,0.04887 1.31756,0.08942 2.0242,0.09011 l 1.28481,0.0013 -0.0979,-0.39001 c -0.0538,-0.214505 -0.21404,-0.557158 -0.35599,-0.761452 -0.14196,-0.204293 -0.81896,-1.454976 -1.50444,-2.779294 l -1.24634,-2.407851 0.63115,-0.619435 c 1.6138,-1.583817 2.25925,-4.52041 1.37468,-6.254306 -0.3443,-0.674888 -1.42226,-1.522708 -2.22568,-1.750503 -0.62189,-0.176328 -5.367483,-0.209497 -6.348044,-0.04437 l -0.531153,0.08945 -0.10155,1.354485 c -0.168236,2.24395 -0.0065,13.277551 0.196409,13.402985 0.236765,0.146329 3.162158,0.116984 3.312218,-0.03323 z m 0.0999,-9.743957 c -0.0464,-0.120948 -0.0397,-0.577819 0.015,-1.015269 l 0.0994,-0.795364 h 0.55016 c 1.10681,0 1.72112,1.043728 1.02439,1.740462 -0.36416,0.364162 -1.55708,0.413725 -1.68891,0.07017 z m 17.128279,9.772634 c 0.14417,-0.152447 0.1632,-3.627606 0.0204,-3.72065 -0.087,-0.05668 -1.333,-0.103058 -2.76888,-0.103058 h -2.6107 l -0.0883,-5.511462 c -0.0486,-3.031305 -0.0975,-5.546198 -0.108779,-5.588651 -0.031,-0.116979 -1.55431,-0.144817 -2.76123,-0.05046 l -1.07284,0.08387 0.0921,4.445562 c 0.0507,2.445059 0.0929,5.795919 0.0938,7.446355 l 0.002,3.000794 0.5439,0.04883 c 0.71195,0.06392 8.594039,0.01737 8.658819,-0.05113 z m 11.7216,-1.497776 c 0.045,-0.914445 0.0495,-1.786418 0.01,-1.937719 -0.0912,-0.348589 -1.23971,-0.460732 -4.71876,-0.460732 h -2.45069 l 0.0432,-0.906491 0.0432,-0.90649 3.51718,-0.03884 3.51719,-0.03884 v -1.882918 -1.882922 h -3.46195 -3.46195 l -0.0857,-0.528025 c -0.16884,-1.040429 -0.2079,-1.028611 3.47933,-1.052901 1.81265,-0.01194 3.33133,-0.05731 3.37484,-0.100821 0.12224,-0.122238 0.0777,-3.520649 -0.0478,-3.646175 -0.061,-0.06106 -2.41525,-0.134078 -5.23158,-0.162259 l -5.12061,-0.05124 -0.0981,2.516892 c -0.17225,4.418017 -0.30467,11.639289 -0.22168,12.089431 0.0735,0.398712 0.14045,0.44231 0.80021,0.521109 0.396,0.0473 2.81518,0.09625 5.37594,0.108779 l 4.65594,0.02279 z m 3.9014,1.57425 0.64478,-0.08838 -0.005,-0.600556 c -0.003,-0.330306 0.0101,-1.414067 0.0281,-2.408357 0.0401,-2.209524 0.0269,-2.216192 1.56785,0.792532 1.28513,2.509268 1.07619,2.369991 3.577574,2.384776 1.19424,0.0071 1.41413,-0.02719 1.41413,-0.220255 0,-0.257584 -1.44274,-3.020328 -2.489694,-4.767591 l -0.69068,-1.152685 0.7988,-0.83746 c 1.127324,-1.181882 1.420374,-1.906894 1.426404,-3.528941 0.006,-1.585405 -0.20173,-2.238565 -0.97996,-3.082844 -1.205144,-1.307423 -2.463174,-1.614036 -6.670374,-1.625732 l -1.86121,-0.0052 0.0504,7.504697 0.0504,7.504698 0.43292,0.09266 c 0.5914,0.126586 1.92448,0.14561 2.70515,0.03861 z m 0.47071,-9.827789 c -0.0419,-0.109222 -0.0562,-0.549777 -0.0317,-0.979009 0.0395,-0.693535 0.0825,-0.785799 0.38559,-0.828704 0.94699,-0.134044 1.64092,0.522888 1.33429,1.263149 -0.2647,0.63905 -1.49911,1.037242 -1.68817,0.544564 z m 16.741304,9.04834 c 1.48775,-0.775311 2.77991,-2.056525 3.43146,-3.402406 0.54746,-1.130861 0.94123,-3.341517 0.87988,-4.939712 -0.15924,-4.148128 -4.42194,-6.937443 -8.88987,-5.817122 -1.79893,0.451076 -3.52963,1.707053 -4.29089,3.113912 -0.67512,1.247674 -0.88516,2.256878 -0.87955,4.226114 0.009,3.086912 0.59991,4.849332 2.01237,5.999908 1.49736,1.219742 2.83272,1.584967 5.34346,1.461458 1.14958,-0.05655 1.39663,-0.122841 2.39314,-0.642152 z m -4.2552,-4.42672 c -1.00964,-0.545899 -1.66964,-1.661396 -1.66713,-2.817675 0.004,-1.999945 1.81208,-3.311923 3.80194,-2.759283 2.2174,0.61583 2.70131,3.757922 0.81035,5.261639 -0.44528,0.354086 -0.7025,0.436564 -1.52291,0.488314 -0.72903,0.04599 -1.1009,7.54e-4 -1.42225,-0.172995 z m -38.379843,2.357516 c 0.0141,-1.039011 -0.0223,-1.269086 -0.2004,-1.269086 -0.11965,0 -0.21756,0.05836 -0.21756,0.129699 0,0.07133 -0.20001,0.343815 -0.44447,0.605512 -0.51507,0.551383 -0.49953,0.711346 0.18223,1.875481 l 0.46717,0.797712 0.0979,-0.435116 c 0.0539,-0.239313 0.10566,-1.006204 0.1151,-1.704202 z M 122.38006,8.1472938 c 0.63599,-0.176635 1.06959,-0.679215 1.289,-1.494044 0.45182,-1.677914 -1.03956,-2.960014 -2.78654,-2.395523 -0.86455,0.279356 -1.2041,0.799733 -1.21031,1.854873 -0.004,0.740469 0.0539,0.925264 0.44332,1.406795 0.60055,0.742547 1.22666,0.916151 2.26453,0.627899 z"
       id="path5" /></g></svg>
